:SAMPLES-PER-SECOND 30
:FULLY-SPECIFIED
:DEGREES
676
root  -64.3991 30.1874 -3.01213 6.2851 39.6028 -4.02954
RightUpLeg  -34.4582 -16.1044 -0.0462818
RightLeg  54.997 2.5584 3.12715
RightFoot  -17.2472 -0.200929 -0.947318
RightToes  -35.8549 -0.186246 -0.29053
Spine  8.29661 1.23691 3.68402
Spine1  16.25 3.61018 2.91453
HEad  13.3462 31.5273 -11.153
LeftShoulder1  0 -2.42657e-020 -4.95415e-022
LeftArm  -10.5188 11.3509 -82.2084
LeftForeArm  45.3199 -41.7506 -9.04166
LeftHand  -0.282645 -6.46791 4.63412
RightShoulder  0 2.42657e-020 1.07489e-018
RightArm  -15.7788 9.68001 73.2908
RightForeArm  35.0009 30.1897 5.87926
RightHand  -1.61199 20.1401 -8.69154
LeftUpLeg  -14.7867 -8.43318 13.4914
LeftLeg  68.8345 0.466346 0.991934
LeftFoot  5.48429 -0.0135235 0.282342
LeftToes  -23.4308 3.33339e-006 -4.73431e-007
677
root  -64.1127 30.3984 -1.65535 6.75635 38.9765 -3.85522
RightUpLeg  -31.5006 -14.4279 0.475846
RightLeg  53.0769 1.97274 2.24304
RightFoot  -18.9589 -0.182628 -0.716195
RightToes  -34.8827 -0.178949 -0.286016
Spine  8.26964 2.30686 3.59602
Spine1  16.377 5.92023 2.86151
HEad  15.0871 32.5038 -11.57
LeftShoulder1  0 -2.42657e-020 -4.95415e-022
LeftArm  -10.6925 11.7814 -83.6318
LeftForeArm  46.8736 -39.8646 -8.4487
LeftHand  -0.219022 -6.94087 3.24366
RightShoulder  0 2.42657e-020 1.07489e-018
RightArm  -13.458 11.9865 74.1984
RightForeArm  34.3229 31.0161 6.07813
RightHand  -1.62123 19.7956 -8.90448
LeftUpLeg  -22.1584 -6.91915 9.85679
LeftLeg  76.0083 0.546348 1.69242
LeftFoot  0.201498 -0.000554965 0.315603
LeftToes  -15.9573 3.33339e-006 -4.73431e-007
678
root  -63.7042 30.8869 -0.200083 6.94281 39.0254 -3.62299
RightUpLeg  -26.6136 -14.0143 0.864127
RightLeg  48.5159 1.71614 1.66354
RightFoot  -19.3369 -0.157391 -0.54629
RightToes  -34.4964 -0.176078 -0.281971
Spine  8.25889 3.22158 3.36749
Spine1  16.4949 7.90907 2.64601
HEad  16.7739 33.2857 -11.9386
LeftShoulder1  0 -2.42657e-020 -4.95415e-022
LeftArm  -10.913 13.4483 -84.662
LeftForeArm  47.5696 -39.5645 -8.35666
LeftHand  -0.138412 -7.33477 1.79094
RightShoulder  0 2.42657e-020 1.07489e-018
RightArm  -11.3303 13.6828 75.7458
RightForeArm  33.9386 32.0806 6.33916
RightHand  -1.58397 19.759 -8.70928
LeftUpLeg  -28.2634 -4.59956 5.91141
LeftLeg  77.8756 1.70338 5.97002
LeftFoot  -6.95188 -0.0223633 -0.368182
LeftToes  -8.18919 3.33339e-006 -4.73431e-007
679
root  -63.1904 31.6147 1.25184 7.89398 39.9095 -2.92352
RightUpLeg  -20.5086 -14.7294 0.863815
RightLeg  40.7913 1.69637 1.25891
RightFoot  -18.2115 -0.133123 -0.453038
RightToes  -33.9869 -0.17472 -0.280578
Spine  7.768 3.8693 2.87247
Spine1  15.6011 9.16841 2.45727
HEad  18.3779 32.3977 -11.461
LeftShoulder1  0 -2.42657e-020 -4.95415e-022
LeftArm  -9.53393 16.1562 -84.7956
LeftForeArm  47.0251 -39.9366 -8.47032
LeftHand  -0.112239 -7.66154 1.30734
RightShoulder  0 2.42657e-020 1.07489e-018
RightArm  -9.11366 13.9969 77.7763
RightForeArm  33.7204 33.3822 6.66683
RightHand  -1.65814 19.6802 -9.17119
LeftUpLeg  -33.5217 -3.74745 1.41788
LeftLeg  74.5275 2.79347 7.96734
LeftFoot  -10.5857 -0.107423 -1.15954
LeftToes  -1.69854 3.33339e-006 -4.73431e-007
680
root  -62.5031 32.4511 2.87123 8.35345 40.6887 -1.8374
RightUpLeg  -11.6457 -14.0011 0.42761
RightLeg  29.55 0.395657 0.183477
RightFoot  -14.8481 -0.0443752 0.0370017
RightToes  -34.3906 -0.175294 -0.281294
Spine  7.31647 4.56456 2.02866
Spine1  14.6622 10.4398 1.70753
HEad  20.6553 30.1134 -8.78946
LeftShoulder1  0 -2.42657e-020 -4.95415e-022
LeftArm  -7.68362 19.3107 -83.5206
LeftForeArm  48.4088 -41.5169 -8.9611
LeftHand  -0.0682813 -8.39948 0.560365
RightShoulder  0 2.42657e-020 1.07489e-018
RightArm  -7.57578 12.6934 80.8514
RightForeArm  32.856 35.3523 7.18311
RightHand  -1.70394 19.5644 -9.49245
LeftUpLeg  -35.2415 -3.15683 -3.10169
LeftLeg  65.4643 2.95439 5.47367
LeftFoot  -10.5034 -0.0712835 -0.775515
LeftToes  -2.87793 3.33339e-006 -4.73431e-007
681
root  -61.7094 33.1669 4.52441 9.29193 40.4768 -0.143677
RightUpLeg  -3.75595 -10.8596 -0.108229
RightLeg  19.6421 -3.05788 -0.874813
RightFoot  -9.43645 0.0204875 0.625822
RightToes  -35.0433 -0.180146 -0.285445
Spine  6.80572 5.3766 0.880286
Spine1  13.5412 11.8076 0.446467
HEad  22.4718 27.6417 -6.18908
LeftShoulder1  0 -2.42657e-020 -4.95415e-022
LeftArm  -5.31839 22.8899 -80.9276
LeftForeArm  49.2372 -44.2081 -9.86014
LeftHand  -0.0476856 -9.63612 0.195919
RightShoulder  0 2.42657e-020 1.07489e-018
RightArm  -5.85959 10.7747 84.5309
RightForeArm  32.3767 38.4858 8.06003
RightHand  -1.73545 19.5752 -9.66831
LeftUpLeg  -34.5361 -1.91357 -8.00371
LeftLeg  52.1696 2.16982 2.44142
LeftFoot  -8.96023 -0.0194036 -0.247653
LeftToes  -7.75037 3.33339e-006 -4.73431e-007
682
root  -60.9063 33.5995 6.23927 9.92059 39.5992 0.59845
RightUpLeg  1.69773 -8.02541 -0.0168323
RightLeg  13.9062 -5.20297 -0.935368
RightFoot  -3.91535 0.00218602 0.441581
RightToes  -38.387 -0.205728 -0.30583
Spine  6.35942 6.20806 -0.0177637
Spine1  12.5799 13.1435 -0.558957
HEad  22.8745 25.9 -4.94124
LeftShoulder1  0 -2.42657e-020 -4.95415e-022
LeftArm  -3.49491 27.0483 -78.2792
LeftForeArm  49.052 -47.7957 -11.2043
LeftHand  -0.0968321 -9.80663 0.759273
RightShoulder  0 2.42657e-020 1.07489e-018
RightArm  -2.48986 9.17308 87.7018
RightForeArm  33.2387 43.5251 9.65073
RightHand  -1.79792 19.7952 -9.91054
LeftUpLeg  -32.4769 1.55051 -12.3566
LeftLeg  36.8113 2.28872 1.48817
LeftFoot  -7.47013 -0.0130326 -0.199645
LeftToes  -12.4721 3.33339e-006 -4.73431e-007
